<svg xmlns="http://www.w3.org/2000/svg" viewBox="0 0 512 512">
  <defs>
    <linearGradient id="glass" x1="0" y1="0" x2="0.4" y2="1">
      <stop offset="0" stop-color="#ffffff" stop-opacity="0.24"/>
      <stop offset="0.5" stop-color="#a78bfa" stop-opacity="0.10"/>
      <stop offset="1" stop-color="#7c5cfc" stop-opacity="0.18"/>
    </linearGradient>
    <linearGradient id="rim" x1="0" y1="0" x2="1" y2="1">
      <stop offset="0" stop-color="#ffffff" stop-opacity="0.75"/>
      <stop offset="0.45" stop-color="#ffffff" stop-opacity="0.12"/>
      <stop offset="1" stop-color="#ffffff" stop-opacity="0.45"/>
    </linearGradient>
    <linearGradient id="ink" x1="0" y1="0" x2="1" y2="1">
      <stop offset="0" stop-color="#f5edff"/>
      <stop offset="1" stop-color="#c4b5fd"/>
    </linearGradient>
  </defs>

  <!-- frosted glass tile -->
  <rect x="34" y="34" width="444" height="444" rx="124" fill="url(#glass)"/>
  <!-- top sheen highlight -->
  <path d="M158 34h196a124 124 0 0 1 124 124v18c-90-34-354-34-444 0v-18A124 124 0 0 1 158 34z"
        fill="#ffffff" opacity="0.10"/>
  <!-- glass rim -->
  <rect x="34" y="34" width="444" height="444" rx="124" fill="none" stroke="url(#rim)" stroke-width="6"/>

  <!-- line-art chat bubble -->
  <path d="M158 176h196a36 36 0 0 1 36 36v92a36 36 0 0 1 -36 36H242l-62 50a9 9 0 0 1 -15 -7v-43h-7a36 36 0 0 1 -36 -36v-92a36 36 0 0 1 36 -36z"
        fill="none" stroke="url(#ink)" stroke-width="15" stroke-linejoin="round"/>
  <circle cx="201" cy="258" r="14" fill="url(#ink)"/>
  <circle cx="256" cy="258" r="14" fill="url(#ink)"/>
  <circle cx="311" cy="258" r="14" fill="url(#ink)"/>
</svg>
